<svg xmlns="http://www.w3.org/2000/svg" viewBox="0 0 3333 3333" fill="#d1d5db" shape-rendering="geometricPrecision" text-rendering="geometricPrecision" image-rendering="optimizeQuality" fill-rule="evenodd" clip-rule="evenodd"><path d="M1667 0c460 0 877 187 1179 488 302 302 488 718 488 1179 0 460-187 877-488 1179-302 302-718 488-1179 488-460 0-877-187-1179-488C186 2544 0 2128 0 1667c0-460 187-877 488-1179C790 186 1206 0 1667 0zm513 1498c83-413-78-759-513-762-311-2-595 201-517 733 10 67-22 58-72 47-42-9-84-18-125-27-21 4-36 11-47 22-60 64 61 113 106 130 60 22 125 44 117 114-3 28-12 55-24 82-57 137-207 265-350 305-74 21-112 29 1 91 51 28 115 44 197 55 12 219 94 78 273 114 22 5 47 8 72 19 46 20 93 60 146 90 160 93 305 98 461-12 90-64 177-127 337-107 113 14 105 49 144-110 141-25 269-52 262-130-185-39-303-136-401-294-39-62-88-154 15-197 27-11 63-18 104-32 37-13 70-35 77-52 21-46-14-87-57-90-83-6-122 48-173 32-11-4-22-11-35-22h1zm580-925c-280-280-666-453-1093-453S853 293 574 573c-280 280-453 666-453 1093s173 814 453 1093c280 280 666 453 1093 453s814-173 1093-453c280-280 453-666 453-1093s-173-814-453-1093z" fill-rule="nonzero"/></svg>