<svg xmlns="http://www.w3.org/2000/svg" shape-rendering="geometricPrecision" text-rendering="geometricPrecision" image-rendering="optimizeQuality" fill-rule="evenodd" clip-rule="evenodd" viewBox="0 0 507 512.27"><path d="M46.19 412.8V236.29c-9.39 3.61-18.18 3.69-25.47 1.2-5.71-1.93-10.52-5.37-14.05-9.83C3.15 223.21.9 217.8.21 211.81c-1.04-9.26 1.73-19.74 9.63-29.56.41-.48.85-.96 1.37-1.37L240.1 2.21a8.41 8.41 0 0 1 10.84-.44l229.41 178.36c.37.28.69.56 1 .92 10.63 11.43 13.29 24.11 10.72 34.82a32.497 32.497 0 0 1-7.3 13.96 31.683 31.683 0 0 1-13 8.78c-8.02 2.89-17.57 2.81-27.24-1.76v41.17c-6.67-4.46-13.87-8.33-21.44-11.45l-1.02-.42v-39.17c0-4.05-157.37-128.45-174.75-141.96-18.41 13.99-178.67 137.39-178.67 142.6v185.26l-22.46-.08zm331.09-67.98v-9.21h15.5v8.98c7.31.36 13.84 1.44 21 2.97v16.51c-3.72-.29-7.9-.52-12.56-.7-4.65-.18-8.87-.27-12.68-.27-2.26 0-4.28.15-6.06.43-8.14 1.31-8.24 12.01 2.31 12.01h8c5.66 0 10.38.95 14.13 2.85 3.76 1.89 6.59 4.46 8.49 7.71 1.9 3.26 2.85 6.95 2.85 11.1v3.54c0 6.79-1.33 11.97-4 15.54-2.67 3.58-6.47 5.99-11.4 7.24-3.32.84-5.89 1.41-10.08 1.68v10h-15.5v-9.96c-7.45-.38-13.86-1.22-21.12-2.95v-16.51c9.17.71 18.57.96 27.78.96 2.66 0 4.89-.18 6.67-.53 8.22-1.65 6.89-10.94-.97-10.94h-6.43c-9.38 0-16.5-1.82-21.35-5.47-4.85-3.65-7.28-9.76-7.28-18.33v-3.54c0-7.86 2.68-13.75 8.01-17.64 3.98-2.9 8.09-4.73 14.69-5.47zm6.88-55.18c13.21 0 25.85 2.65 37.38 7.42a97.95 97.95 0 0 1 31.73 21.22c8.99 9 16.27 19.78 21.22 31.73 4.78 11.53 7.42 24.16 7.42 37.39 0 9.67-1.43 19.05-4.06 27.91a96.946 96.946 0 0 1-9.94 22.49l37.86 41.26a4.688 4.688 0 0 1-.28 6.61l-27.79 25.38a4.673 4.673 0 0 1-6.59-.29l-36.2-39.82a97.528 97.528 0 0 1-22.45 10.03 97.268 97.268 0 0 1-28.3 4.18c-13.22 0-25.86-2.64-37.38-7.42a97.887 97.887 0 0 1-31.74-21.22l-.21-.23a97.902 97.902 0 0 1-21-31.51 97.397 97.397 0 0 1-7.43-37.37c0-13.23 2.65-25.86 7.42-37.39a97.95 97.95 0 0 1 21.22-31.73c9-9 19.78-16.27 31.74-21.22a97.553 97.553 0 0 1 37.38-7.42zm55.16 42.59a78.634 78.634 0 0 0-25.34-16.93l-.24-.11c-9.09-3.72-19.09-5.79-29.58-5.79-10.6 0-20.68 2.1-29.85 5.9-9.52 3.94-18.11 9.74-25.31 16.93a78.436 78.436 0 0 0-16.94 25.35l-.11.23c-3.72 9.09-5.78 19.09-5.78 29.59 0 10.59 2.1 20.67 5.89 29.84 3.94 9.52 9.75 18.11 16.94 25.31 7.21 7.2 15.8 13 25.3 16.94 9.19 3.79 19.27 5.89 29.86 5.89 10.58 0 20.66-2.1 29.82-5.89a78.5 78.5 0 0 0 25.34-16.94c7.19-7.2 12.99-15.79 16.93-25.31 3.79-9.17 5.89-19.25 5.89-29.84s-2.1-20.67-5.88-29.82a78.436 78.436 0 0 0-16.94-25.35zM254.11 223.41v72.17h32.29c-4.26 4.52-8.34 9.63-12.18 15.24h-20.11v49.67c-1.11 6.66-1.69 13.4-1.69 20.17 0 2.67.09 5.33.27 7.98h-93.81v-93.3c0-24.11 9.86-46.01 25.71-61.86 15.88-15.85 37.79-25.72 61.9-25.72 24.1 0 46.01 9.87 61.85 25.72 9.22 9.22 16.4 20.46 20.8 32.98l-.4.16a125.74 125.74 0 0 0-13.4 6.54c-3.58-11-9.74-20.88-17.75-28.89-11.44-11.44-26.64-19.1-43.48-20.86zm-15.25 150.03v-62.62h-64.74v62.66h64.74v-.04zm0-77.86v-72.17c-16.89 1.81-32.05 9.42-43.49 20.86-13.11 13.11-21.26 31.21-21.26 51.1v.21h64.75zm-96.07 109.67h112.14c1.05 5.11 2.46 10.2 4.21 15.24H142.79v-15.24zM445.01 20.61v89.47l-68.88-45.45V20.61h68.88z"/></svg>